<svg width="97" height="97" viewBox="0 0 97 97" fill="none" xmlns="http://www.w3.org/2000/svg">
<g clip-path="url(#clip0_38_7356)">
<path d="M90.0349 0H6.96514C3.1184 0 0 3.1184 0 6.96514V90.0349C0 93.8816 3.1184 97 6.96514 97H90.0349C93.8816 97 97 93.8816 97 90.0349V6.96514C97 3.1184 93.8816 0 90.0349 0Z" fill="url(#paint0_linear_38_7356)"/>
<path d="M50.2293 33.9095C51.3364 32.8023 51.3364 31.0073 50.2293 29.9001C49.1221 28.7929 47.327 28.7929 46.2199 29.9001C45.1127 31.0073 45.1127 32.8023 46.2199 33.9095C47.327 35.0166 49.1221 35.0166 50.2293 33.9095Z" fill="white"/>
<path d="M16.9115 69.4071C16.9115 67.6485 18.3371 66.2229 20.0957 66.2229H76.6152C78.3738 66.2229 79.7994 67.6485 79.7994 69.4071H16.9115Z" fill="white"/>
<path fill-rule="evenodd" clip-rule="evenodd" d="M23.5287 65.3575L73.0385 65.3575C73.2797 65.3569 73.5182 65.3065 73.739 65.2094C73.9598 65.1123 74.1581 64.9707 74.3216 64.7933C74.4851 64.616 74.6101 64.4067 74.6889 64.1788C74.7677 63.9508 74.7985 63.709 74.7795 63.4686C73.7265 49.753 62.2726 35.6638 48.2856 35.6648C34.2985 35.6658 22.8358 49.7521 21.7887 63.4696C21.7696 63.7099 21.8004 63.9516 21.8791 64.1794C21.9578 64.4073 22.0828 64.6164 22.2462 64.7937C22.4096 64.971 22.6078 65.1126 22.8285 65.2096C23.0492 65.3066 23.2876 65.357 23.5287 65.3575ZM36.2378 45.5905C36.668 45.2486 36.7396 44.6226 36.3976 44.1924C36.0557 43.7622 35.4297 43.6906 34.9995 44.0326C28.5308 49.1743 25.9672 57.0451 25.4794 60.39C25.4001 60.9338 25.7767 61.4389 26.3205 61.5182C26.8643 61.5975 27.3694 61.221 27.4487 60.6771C27.8897 57.6536 30.2881 50.3198 36.2378 45.5905Z" fill="white"/>
</g>
<defs>
<linearGradient id="paint0_linear_38_7356" x1="48.5" y1="94.2998" x2="48.5" y2="2.28455" gradientUnits="userSpaceOnUse">
<stop stop-color="#B31B3C"/>
<stop offset="1" stop-color="#FF1532"/>
</linearGradient>
<clipPath id="clip0_38_7356">
<rect width="97" height="97" fill="white"/>
</clipPath>
</defs>
</svg>
