<svg width="178" height="52" viewBox="0 0 178 52" fill="none" xmlns="http://www.w3.org/2000/svg">
<path d="M73.7465 35L70.0326 28.2592H68.9897V35H64.64V17.1431H71.9404C73.3479 17.1431 74.5435 17.389 75.5271 17.8808C76.5276 18.3726 77.2737 19.0509 77.7655 19.9158C78.2573 20.7637 78.5032 21.7133 78.5032 22.7647C78.5032 23.9518 78.164 25.0117 77.4857 25.9444C76.8244 26.8771 75.8408 27.5384 74.535 27.9285L78.6558 35H73.7465ZM68.9897 25.1813H71.6861C72.4831 25.1813 73.0766 24.9863 73.4667 24.5962C73.8736 24.2062 74.0771 23.655 74.0771 22.9428C74.0771 22.2645 73.8736 21.7303 73.4667 21.3403C73.0766 20.9502 72.4831 20.7552 71.6861 20.7552H68.9897V25.1813ZM85.5835 20.628V24.2401H91.4086V27.5978H85.5835V31.5151H92.1717V35H81.2337V17.1431H92.1717V20.628H85.5835ZM101.457 35.1781C100.151 35.1781 98.9808 34.9661 97.9463 34.5421C96.9119 34.1182 96.0809 33.4907 95.4535 32.6598C94.843 31.8288 94.5208 30.8283 94.4869 29.6582H99.1164C99.1842 30.3196 99.4132 30.8283 99.8032 31.1844C100.193 31.5236 100.702 31.6932 101.329 31.6932C101.974 31.6932 102.483 31.549 102.856 31.2607C103.229 30.9555 103.415 30.54 103.415 30.0143C103.415 29.5734 103.263 29.2088 102.957 28.9205C102.669 28.6322 102.305 28.3948 101.864 28.2083C101.44 28.0217 100.829 27.8098 100.032 27.5724C98.879 27.2162 97.9378 26.8601 97.2086 26.504C96.4794 26.1479 95.852 25.6222 95.3263 24.9269C94.8006 24.2316 94.5377 23.3244 94.5377 22.2051C94.5377 20.5432 95.1397 19.2459 96.3438 18.3132C97.5478 17.3636 99.1164 16.8888 101.05 16.8888C103.017 16.8888 104.602 17.3636 105.806 18.3132C107.01 19.2459 107.655 20.5517 107.74 22.2306H103.034C103 21.654 102.788 21.2046 102.398 20.8824C102.008 20.5432 101.508 20.3737 100.897 20.3737C100.371 20.3737 99.9474 20.5178 99.6252 20.8061C99.303 21.0774 99.1419 21.4759 99.1419 22.0016C99.1419 22.5782 99.4132 23.0276 99.9558 23.3498C100.498 23.672 101.346 24.0196 102.5 24.3927C103.653 24.7828 104.585 25.1558 105.298 25.512C106.027 25.8681 106.654 26.3853 107.18 27.0636C107.706 27.7419 107.969 28.6153 107.969 29.6836C107.969 30.7011 107.706 31.6253 107.18 32.4563C106.671 33.2872 105.925 33.9486 104.942 34.4404C103.958 34.9322 102.796 35.1781 101.457 35.1781ZM114.995 20.628V24.2401H120.82V27.5978H114.995V31.5151H121.583V35H110.645V17.1431H121.583V20.628H114.995ZM133.514 35L129.8 28.2592H128.757V35H124.407V17.1431H131.708C133.115 17.1431 134.311 17.389 135.294 17.8808C136.295 18.3726 137.041 19.0509 137.533 19.9158C138.025 20.7637 138.271 21.7133 138.271 22.7647C138.271 23.9518 137.931 25.0117 137.253 25.9444C136.592 26.8771 135.608 27.5384 134.302 27.9285L138.423 35H133.514ZM128.757 25.1813H131.453C132.25 25.1813 132.844 24.9863 133.234 24.5962C133.641 24.2062 133.844 23.655 133.844 22.9428C133.844 22.2645 133.641 21.7303 133.234 21.3403C132.844 20.9502 132.25 20.7552 131.453 20.7552H128.757V25.1813ZM157.764 17.1431L151.43 35H145.987L139.653 17.1431H144.282L148.708 30.6248L153.16 17.1431H157.764ZM170.698 31.8458H164.034L162.965 35H158.412L164.873 17.1431H169.91L176.371 35H171.766L170.698 31.8458ZM169.579 28.4881L167.366 21.9508L165.178 28.4881H169.579Z" fill="#4c00ff"/>
<g clip-path="url(#clip0_9_639)">
<path d="M47.7131 0H3.69111C1.65257 0 0 1.65257 0 3.69111V47.7131C0 49.7516 1.65257 51.4042 3.69111 51.4042H47.7131C49.7516 51.4042 51.4042 49.7516 51.4042 47.7131V3.69111C51.4042 1.65257 49.7516 0 47.7131 0Z" fill="url(#paint0_linear_9_639)"/>
<path d="M26.6185 17.97C27.2052 17.3832 27.2052 16.432 26.6185 15.8452C26.0318 15.2585 25.0805 15.2585 24.4938 15.8452C23.907 16.432 23.907 17.3832 24.4938 17.97C25.0805 18.5567 26.0318 18.5567 26.6185 17.97Z" fill="white"/>
<path d="M8.9621 36.7817C8.9621 35.8497 9.71759 35.0942 10.6495 35.0942H40.6015C41.5335 35.0942 42.2889 35.8497 42.2889 36.7817H8.9621Z" fill="white"/>
<path fill-rule="evenodd" clip-rule="evenodd" d="M12.4688 34.6355L38.7061 34.6355C38.8339 34.6352 38.9603 34.6085 39.0773 34.557C39.1943 34.5056 39.2994 34.4305 39.386 34.3365C39.4727 34.2425 39.5389 34.1317 39.5807 34.0108C39.6224 33.89 39.6388 33.7619 39.6287 33.6345C39.0707 26.3661 33.0008 18.8996 25.5885 18.9001C18.1762 18.9007 12.1016 26.3656 11.5467 33.635C11.5366 33.7624 11.5529 33.8904 11.5946 34.0112C11.6364 34.132 11.7026 34.2428 11.7892 34.3367C11.8758 34.4307 11.9808 34.5057 12.0978 34.5571C12.2147 34.6085 12.3411 34.6352 12.4688 34.6355ZM19.2039 24.1602C19.4319 23.979 19.4698 23.6473 19.2886 23.4193C19.1073 23.1913 18.7756 23.1534 18.5476 23.3346C15.1196 26.0595 13.7611 30.2305 13.5026 32.0031C13.4605 32.2912 13.6601 32.5589 13.9483 32.601C14.2365 32.643 14.5042 32.4434 14.5462 32.1553C14.7798 30.553 16.0509 26.6665 19.2039 24.1602Z" fill="white"/>
</g>
<defs>
<linearGradient id="paint0_linear_9_639" x1="25.7021" y1="49.9733" x2="25.7021" y2="1.21068" gradientUnits="userSpaceOnUse">
<stop stop-color="#3400ad"/>
<stop offset="1" stop-color="#4c00ff"/>
</linearGradient>
<clipPath id="clip0_9_639">
<rect width="51.4042" height="51.4042" fill="white"/>
</clipPath>
</defs>
</svg>
