<svg width="942" height="991" viewBox="0 0 942 991" fill="none" xmlns="http://www.w3.org/2000/svg">
<path d="M137.925 526.575C-45.975 632.775 -45.975 804.875 137.925 911.075C321.725 1017.18 619.925 1017.18 803.725 911.075C987.625 804.875 987.625 632.775 803.725 526.575C619.925 420.475 321.725 420.475 137.925 526.575Z" fill="#EBEBEB"/>
<path d="M628.7 624.1L274.5 828.4C271 830.5 271 833.8 274.5 835.8L321.7 863C325.2 865 330.9 865 334.5 863L688.7 658.6C692.2 656.6 692.2 653.3 688.7 651.2L641.5 624.1C638 622 632.3 622 628.7 624.1Z" fill="#E0E0E0"/>
<path d="M293.5 843.8L315.8 830.9C315.8 830.9 329.1 775.8 323.8 726.2C316.4 656.4 270.5 630.2 253 636.2C235.5 642.2 230.5 662.5 259.4 704.1C276.4 728.6 297.4 779.6 293.5 843.8Z" fill="#4c00ff"/>
<g opacity="0.7">
<path d="M293.5 843.8L315.8 830.9C315.8 830.9 329.1 775.8 323.8 726.2C316.4 656.4 270.5 630.2 253 636.2C235.5 642.2 230.5 662.5 259.4 704.1C276.4 728.6 297.4 779.6 293.5 843.8Z" fill="white"/>
</g>
<path d="M302.8 816.7C302.733 816.7 302.667 816.7 302.6 816.7C301.7 816.5 301.2 815.7 301.3 814.9C313.5 750.6 291.1 678.3 263.2 648.2C262.7 647.6 262.7 646.6 263.3 646C264 645.4 264.9 645.5 265.5 646.1C293.9 676.7 316.8 750.2 304.4 815.5C304.2 816.2 303.5 816.8 302.8 816.7Z" fill="white"/>
<path d="M237.4 876.2C234.1 877.9 225.2 870.3 222.8 868.5C218.5 865.3 215.2 861 213.1 856.2C210.6 850.6 210.2 844.7 211.4 838.7C212 835.5 213 832.5 214.1 829.5C215.1 826.567 216.1 823.633 217.1 820.7C218.1 817.8 219.1 814.8 218.9 811.7C218.4 805.5 213.2 800.9 208.4 797C203.1 792.6 197.7 786.9 198.1 779.5C198.4 773.8 201.6 768.7 205.4 764.4C209.1 760.1 213.5 756.3 217 751.8C219.4 748.5 221.4 744.6 221.3 740.5C221.2 737.9 220.2 735.5 219.1 733.2C216.8 728.2 213.5 723.7 212 718.4C210.5 713.1 211 706.7 215.3 703.2C218.7 700.4 223.7 700.2 228.1 700.7C232.3 701.2 236.2 703.3 239.7 705.5C251.1 712.6 257.1 726.8 269.3 732.5C274 734.6 279.3 735.3 284.2 736.9C289.2 738.5 294.1 741.3 296.2 746C300.3 755.4 291.3 766.2 294 776.1C296.4 784.8 304.6 788.5 308.9 796.4C310.7 799.9 311 803.9 310.5 807.8C309.6 814.4 308.4 819.3 304.8 826.5C301.8 832.5 293.5 843.8 293.5 843.8C293.5 843.8 237.9 875.9 237.4 876.2Z" fill="#4c00ff"/>
<g opacity="0.3">
<path d="M237.4 876.2C234.1 877.9 225.2 870.3 222.8 868.5C218.5 865.3 215.2 861 213.1 856.2C210.6 850.6 210.2 844.7 211.4 838.7C212 835.5 213 832.5 214.1 829.5C215.1 826.567 216.1 823.633 217.1 820.7C218.1 817.8 219.1 814.8 218.9 811.7C218.4 805.5 213.2 800.9 208.4 797C203.1 792.6 197.7 786.9 198.1 779.5C198.4 773.8 201.6 768.7 205.4 764.4C209.1 760.1 213.5 756.3 217 751.8C219.4 748.5 221.4 744.6 221.3 740.5C221.2 737.9 220.2 735.5 219.1 733.2C216.8 728.2 213.5 723.7 212 718.4C210.5 713.1 211 706.7 215.3 703.2C218.7 700.4 223.7 700.2 228.1 700.7C232.3 701.2 236.2 703.3 239.7 705.5C251.1 712.6 257.1 726.8 269.3 732.5C274 734.6 279.3 735.3 284.2 736.9C289.2 738.5 294.1 741.3 296.2 746C300.3 755.4 291.3 766.2 294 776.1C296.4 784.8 304.6 788.5 308.9 796.4C310.7 799.9 311 803.9 310.5 807.8C309.6 814.4 308.4 819.3 304.8 826.5C301.8 832.5 293.5 843.8 293.5 843.8C293.5 843.8 237.9 875.9 237.4 876.2Z" fill="white"/>
</g>
<path d="M269.7 859.4C268.8 859.3 268.2 858.6 268.3 857.8C273.6 799.9 249.6 734.5 230.6 714.9C230.1 714.4 230.1 713.4 230.7 712.9C231.2 712.3 232.2 712.3 232.7 712.9C252 732.9 276.6 799.4 271.2 858.1C271.2 858.8 270.5 859.4 269.7 859.4Z" fill="white"/>
<path d="M263.9 788C263.767 788 263.633 788 263.5 788C245.2 781.3 222 779.1 221.8 779C221 779 220.4 778.3 220.5 777.5C220.5 776.7 221.2 776 222 776.1C222.3 776.2 245.8 778.4 264.5 785.2C265.3 785.5 265.7 786.3 265.4 787.1C265.2 787.7 264.6 788.1 263.9 788Z" fill="white"/>
<path d="M663.3 2.09998L322.9 198.4C319.4 200.4 316.5 205.4 316.5 209.4V833.6C316.5 837.7 319.4 842.6 322.9 844.6L324.2 845.3C327.7 847.3 333.4 847.3 337 845.3L677.4 648.7C680.9 646.7 683.8 641.8 683.8 637.7V13.8C683.8 9.79998 680.9 4.79998 677.4 2.79998L676.1 2.09998C672.6 0.0999756 666.9 0.0999756 663.3 2.09998Z" fill="#4c00ff"/>
<path opacity="0.5" d="M663.3 2.09998L322.9 198.4C319.4 200.4 316.5 205.4 316.5 209.4V833.6C316.5 837.7 319.4 842.6 322.9 844.6L324.2 845.3C327.7 847.3 333.4 847.3 337 845.3L677.4 648.7C680.9 646.7 683.8 641.8 683.8 637.7V13.8C683.8 9.79998 680.9 4.79998 677.4 2.79998L676.1 2.09998C672.6 0.0999756 666.9 0.0999756 663.3 2.09998Z" fill="black"/>
<path d="M683.8 638.2C683.8 643.8 679.8 647.3 675 650.1L339.4 843.9C334.5 846.7 330.6 844.4 330.6 838.8V220.2C330.6 214 333.9 208.2 339.3 205.1L675 11.3C678.9 8.99997 683.8 11.8 683.8 16.3V638.2Z" fill="#4c00ff"/>
<path opacity="0.3" d="M683.8 638.2C683.8 643.8 679.8 647.3 675 650.1L339.4 843.9C334.5 846.7 330.6 844.4 330.6 838.8V220.2C330.6 214 333.9 208.2 339.3 205.1L675 11.3C678.9 8.99997 683.8 11.8 683.8 16.3V638.2Z" fill="black"/>
<path d="M683.8 13.8V16.3C683.8 11.8 678.9 8.99998 674.9 11.3L339.3 205.1C336.6 206.6 334.4 208.9 332.9 211.5C332.9 211.567 332.9 211.633 332.9 211.7L318.3 203.3C319.5 201.3 321.1 199.5 322.9 198.4L663.3 2.09998C666.9 0.0999756 672.6 0.0999756 676.1 2.09998L677.4 2.79998C680.9 4.79998 683.8 9.79998 683.8 13.8Z" fill="#4c00ff"/>
<path opacity="0.2" d="M683.8 13.8V16.3C683.8 11.8 678.9 8.99998 674.9 11.3L339.3 205.1C336.6 206.6 334.4 208.9 332.9 211.5C332.9 211.567 332.9 211.633 332.9 211.7L318.3 203.3C319.5 201.3 321.1 199.5 322.9 198.4L663.3 2.09998C666.9 0.0999756 672.6 0.0999756 676.1 2.09998L677.4 2.79998C680.9 4.79998 683.8 9.79998 683.8 13.8Z" fill="black"/>
<path opacity="0.3" d="M675.5 612.4C675.5 618.1 671.4 621.8 666.4 624.7L349.2 807.8C344.2 810.7 340.2 808.4 340.2 802.6V252.7C340.2 246.3 343.6 240.3 349.2 237.1L666.4 53.9C670.4 51.5 675.5 54.5 675.5 59.1V65.8V612.4Z" fill="black"/>
<path d="M348.3 243.9L664.3 61.5C665.8 60.6 668.2 60.6 669.7 61.5L672.8 63.1999C674.3 64.0999 675.5 66.2 675.5 67.9V620.4C675.5 622.1 674.3 624.2 672.8 625L356.8 807.5C355.3 808.4 352.8 808.4 351.3 807.5L348.3 805.7C346.8 804.9 345.6 802.8 345.6 801V248.6C345.6 246.9 346.8 244.8 348.3 243.9Z" fill="#F5F5F5"/>
<path d="M356.1 807.8C355.767 807.933 355.433 808.033 355.1 808.1C354.9 808.1 354.733 808.1 354.6 808.1C354.067 808.167 353.5 808.167 352.9 808.1C352.567 808.033 352.233 807.933 351.9 807.8C351.7 807.733 351.5 807.633 351.3 807.5L348.3 805.8C346.8 804.9 345.6 802.8 345.6 801.1V248.6C345.6 247.8 345.9 246.8 346.4 246L354.8 250.8C354.4 251.7 354 252.7 354 253.5V805.9C354 807.4 354.9 808.1 356.1 807.8Z" fill="#E0E0E0"/>
<path d="M672.8 63.1999L669.7 61.5C668.2 60.6 665.8 60.6 664.3 61.5L348.3 243.9C346.8 244.8 345.6 246.9 345.6 248.6V282.7L354 287.7L675.5 102.1V67.9C675.5 66.2 674.3 64.0999 672.8 63.1999Z" fill="#4c00ff"/>
<path opacity="0.4" d="M672.8 63.1999L669.7 61.5C668.2 60.6 665.8 60.6 664.3 61.5L348.3 243.9C346.8 244.8 345.6 246.9 345.6 248.6V282.7L354 287.7L675.5 102.1V67.9C675.5 66.2 674.3 64.0999 672.8 63.1999Z" fill="white"/>
<path d="M675.4 67.0999C675 65.9999 674 65.7 672.8 66.4L356.8 248.8C356 249.3 355.3 250 354.8 250.8L346.4 246C346.9 245.1 347.5 244.4 348.3 243.9L664.3 61.5C665.8 60.6 668.2 60.6 669.7 61.5L672.8 63.1999C674 63.9999 675.1 65.5999 675.4 67.0999Z" fill="#4c00ff"/>
<path opacity="0.6" d="M675.4 67.0999C675 65.9999 674 65.7 672.8 66.4L356.8 248.8C356 249.3 355.3 250 354.8 250.8L346.4 246C346.9 245.1 347.5 244.4 348.3 243.9L664.3 61.5C665.8 60.6 668.2 60.6 669.7 61.5L672.8 63.1999C674 63.9999 675.1 65.5999 675.4 67.0999Z" fill="white"/>
<path d="M345.6 248.6V282.8L354 287.7V253.5C354 252.7 354.4 251.7 354.8 250.8L346.4 246C345.9 246.8 345.6 247.8 345.6 248.6Z" fill="#4c00ff"/>
<g opacity="0.3">
<path d="M602.4 84.3V111.5C602.4 118.4 597.7 126.5 591.7 129.9L539.1 160.3C536.5 161.8 535 164.8 533.5 167.9C532.3 170.3 531.1 172.6 529.4 174.6C525.3 179.2 516.4 184 510.1 186.1C508.033 186.767 505.933 187.233 503.8 187.5C503 187.6 502.2 187.8 501.3 187.9C495.5 188.6 488.4 189.6 484.2 192L422.6 227.5C420.8 228.6 419 229.2 417.3 229.2C415.967 229.2 414.767 228.867 413.7 228.2C411.2 226.8 409.8 223.9 409.8 220.1V193C409.8 186.1 414.5 178 420.4 174.5L441.1 162.6C441.167 162.533 441.267 162.5 441.4 162.5C442.4 162 443.5 162.4 444.1 163.4C444.7 164.4 444.4 165.6 443.5 166.2C443.433 166.267 443.367 166.333 443.3 166.4L422.6 178.3C418.1 181 414.2 187.7 414.2 193V220.1C414.2 222.2 414.8 223.8 415.9 224.4C417 225 418.6 224.8 420.4 223.7L482 188.2C486.9 185.3 494.5 184.3 500.7 183.5C501.567 183.367 502.4 183.233 503.2 183.1C505 182.9 506.9 182.5 508.8 181.8C514.4 180.1 522.7 175.6 526.1 171.7C527.5 170.2 528.4 168.1 529.5 166C531.3 162.4 533.2 158.6 536.9 156.5L589.5 126.1C594.1 123.5 598 116.8 598 111.5V84.3C598 82.3 597.3 80.7 596.3 80.1C595.2 79.4 593.5 79.7 591.7 80.7L573.8 91.1C573.2 89.7 572.4 88.4 571.5 87.3L589.5 76.9C592.7 75 595.9 74.8 598.5 76.2C601 77.7 602.4 80.6 602.4 84.3Z" fill="black"/>
</g>
<path d="M564 84.8C565.4 84 567.4 84.1 569.6 85.4C573.9 87.9 577.4 93.9 577.4 98.9C577.4 101.4 576.5 103.2 575.1 104L450.3 176L439.2 156.9L564 84.8Z" fill="#37474F"/>
<path d="M444.8 166.5L575.1 91.1999C573.7 88.7999 571.7 86.5999 569.6 85.3999C569.3 85.1999 569.1 85.0999 568.8 84.9999L440.5 159.1L444.8 166.5Z" fill="#455A64"/>
<path d="M444.8 157.4C440.5 154.9 437 156.9 437 161.9C437 166.9 440.5 173 444.8 175.5C449.1 178 452.6 175.9 452.6 170.9C452.6 166 449.1 159.9 444.8 157.4Z" fill="#263238"/>
<path d="M604.6 86.2999V113.4C604.6 120.3 599.9 128.4 593.9 131.9L541.3 162.2C538.7 163.7 537.3 166.7 535.7 169.9C534.5 172.2 533.4 174.6 531.6 176.5C527.6 181.1 518.6 186 512.4 188C510.267 188.667 508.133 189.133 506 189.4C505.3 189.6 504.4 189.7 503.5 189.8C497.7 190.6 490.6 191.5 486.4 194L424.9 229.5C423 230.6 421.2 231.1 419.5 231.1C418.167 231.1 416.967 230.8 415.9 230.2C413.4 228.7 412 225.8 412 222.1V194.9C412 188 416.7 179.9 422.6 176.5L443.3 164.5C443.367 164.5 443.467 164.467 443.6 164.4C444.6 164 445.8 164.4 446.3 165.3C446.9 166.3 446.6 167.5 445.8 168.1C445.733 168.233 445.633 168.3 445.5 168.3L424.9 180.3C420.3 182.9 416.4 189.6 416.4 194.9V222.1C416.4 224.2 417 225.7 418.1 226.3C419.2 227 420.8 226.7 422.6 225.7L484.2 190.1C489.1 187.3 496.8 186.2 502.9 185.4C503.767 185.333 504.6 185.233 505.4 185.1C507.2 184.8 509.1 184.4 511 183.8C516.6 182 524.9 177.5 528.3 173.6C529.7 172.1 530.7 170.1 531.7 167.9C533.5 164.3 535.4 160.6 539.1 158.4L591.7 128.1C596.3 125.4 600.2 118.7 600.2 113.4V86.2999C600.2 84.1999 599.6 82.5999 598.5 81.9999C597.4 81.3999 595.7 81.5999 593.9 82.6999L576 92.9999C575.4 91.6999 574.6 90.3999 573.8 89.1999L591.7 78.8999C595 76.9999 598.2 76.6999 600.7 78.1999C603.2 79.5999 604.6 82.4999 604.6 86.2999Z" fill="#455A64"/>
<g opacity="0.2">
<path d="M378.8 350.3L679.1 176.9C680.4 176.1 681.4 176.7 681.4 178.2V249.9C681.4 251.3 680.4 253.1 679.1 253.8L378.8 427.3C377.5 428.1 376.5 427.5 376.5 426V354.3C376.5 352.9 377.5 351.1 378.8 350.3Z" fill="black"/>
</g>
<path d="M695.1 186.4C694.4 186 693.4 186.1 692.4 186.7L395.5 358.2C393.3 359.5 391.5 362.6 391.5 365.2V433.2C391.5 434.4 391.9 435.3 392.6 435.8C391.9 435.3 385.8 431.8 385 431.4C384.3 431 383.9 430.1 383.9 428.8V360.8C383.9 358.3 385.7 355.1 387.9 353.8L684.8 182.3C685.9 181.7 686.9 181.6 687.7 182.1C688.3 182.5 693.6 185.5 695.1 186.4Z" fill="#4c00ff"/>
<g opacity="0.2">
<path d="M695.1 186.4C693.6 185.5 688.3 182.5 687.7 182.1C686.9 181.6 685.9 181.7 684.8 182.3L387.9 353.8C386.8 354.5 385.8 355.6 385.1 356.8L392.7 361.2C393.4 360 394.4 358.8 395.5 358.2L692.4 186.7C693.4 186.1 694.4 186 695.1 186.4Z" fill="white"/>
</g>
<path d="M395.5 358.2L692.4 186.7C694.6 185.4 696.4 186.5 696.4 189.1V257C696.4 259.6 694.6 262.8 692.4 264L395.5 435.5C393.3 436.8 391.5 435.8 391.5 433.2V365.2C391.5 362.6 393.3 359.5 395.5 358.2Z" fill="#FAFAFA"/>
<path d="M392.7 361.2L385.1 356.8C384.3 358.1 383.9 359.5 383.9 360.8V428.8C383.9 430.1 384.3 431 385 431.4C385.8 431.8 391.9 435.3 392.6 435.8C391.9 435.3 391.5 434.4 391.5 433.2V365.2C391.5 363.9 391.9 362.5 392.7 361.2Z" fill="#4c00ff"/>
<path opacity="0.1" d="M392.7 361.2L385.1 356.8C384.3 358.1 383.9 359.5 383.9 360.8V428.8C383.9 430.1 384.3 431 385 431.4C385.8 431.8 391.9 435.3 392.6 435.8C391.9 435.3 391.5 434.4 391.5 433.2V365.2C391.5 363.9 391.9 362.5 392.7 361.2Z" fill="black"/>
<path fill-rule="evenodd" clip-rule="evenodd" d="M696.4 189.1V257C696.4 259.6 694.6 262.8 692.4 264L395.5 435.5C394.833 435.9 394.233 436.1 393.7 436.1C392.4 436.1 391.5 435 391.5 433.2V365.2C391.5 362.6 393.3 359.5 395.5 358.2L692.4 186.7C693.067 186.367 693.667 186.2 694.2 186.2C695.5 186.2 696.4 187.2 696.4 189.1ZM693.3 188.4L396.5 359.8C394.8 360.8 393.3 363.3 393.3 365.2V433.2C393.3 433.3 393.3 434.2 393.7 434.2C393.8 434.2 394.1 434.2 394.6 433.9L691.4 262.4C693.1 261.5 694.6 258.9 694.6 257V189.1C694.6 189 694.5 188 694.2 188C694.1 188 693.8 188.1 693.3 188.4Z" fill="#4c00ff"/>
<path d="M448.7 352.3C452.7 354.7 455.2 359.7 455.2 366.8C455.2 381 445.2 398.3 432.9 405.4C426.7 408.9 421.2 409.3 417.1 406.9C414.7 405.5 412.5 404.2 410 402.8C406 400.5 403.5 395.5 403.5 388.4C403.5 374.2 413.5 356.9 425.8 349.8C431.9 346.2 437.5 345.9 441.6 348.2C444 349.6 446.2 350.9 448.7 352.3Z" fill="#4c00ff"/>
<path opacity="0.2" d="M448.7 352.3C452.7 354.7 455.2 359.7 455.2 366.8C455.2 381 445.2 398.3 432.9 405.4C426.7 408.9 421.2 409.3 417.1 406.9C414.7 405.5 412.5 404.2 410 402.8C406 400.5 403.5 395.5 403.5 388.4C403.5 374.2 413.5 356.9 425.8 349.8C431.9 346.2 437.5 345.9 441.6 348.2C444 349.6 446.2 350.9 448.7 352.3Z" fill="black"/>
<path d="M432.9 405.4C426.7 408.9 421.2 409.3 417.1 406.9C413.1 404.6 410.6 399.6 410.6 392.5C410.6 378.3 420.6 361 432.9 353.9C439.1 350.3 444.6 350 448.7 352.3C452.7 354.7 455.2 359.7 455.2 366.8C455.2 381 445.2 398.3 432.9 405.4Z" fill="#4c00ff"/>
<path d="M444.7 369.6L435.3 375V362.5C435.3 360.7 434.2 359.9 432.9 360.6C431.6 361.4 430.5 363.5 430.5 365.2V377.8L421.1 383.3C419.7 384 418.7 386.1 418.7 387.9C418.7 389.6 419.7 390.4 421.1 389.7L430.5 384.2V396.8C430.5 398.6 431.6 399.4 432.9 398.6C434.2 397.9 435.3 395.8 435.3 394V381.4L444.7 376C446.1 375.2 447.1 373.2 447.1 371.4C447.1 369.6 446.1 368.8 444.7 369.6Z" fill="#FAFAFA"/>
<path d="M470.5 346.4L679.6 225.6C682.3 224 684.6 219.8 684.6 216.1C684.6 212.4 682.3 210.7 679.6 212.3L470.5 333.1C467.8 334.7 465.5 338.9 465.5 342.6C465.5 346.3 467.8 348 470.5 346.4ZM679.6 240.3L470.5 361.1C467.8 362.7 465.5 366.9 465.5 370.6C465.5 374.3 467.8 376 470.5 374.4L679.6 253.6C682.3 252 684.6 247.8 684.6 244.1C684.6 240.4 682.3 238.7 679.6 240.3Z" fill="#E0E0E0"/>
<g opacity="0.2">
<path d="M378.8 459.5L679.1 286C680.4 285.3 681.4 285.9 681.4 287.3V359C681.4 360.5 680.4 362.3 679.1 363L378.8 536.5C377.5 537.2 376.5 536.6 376.5 535.1V463.5C376.5 462 377.5 460.2 378.8 459.5Z" fill="black"/>
</g>
<path d="M695.1 295.5C694.4 295.2 693.4 295.3 692.4 295.9L395.5 467.4C393.3 468.6 391.5 471.8 391.5 474.4V542.3C391.5 543.6 391.9 544.5 392.6 544.9C391.9 544.5 385.8 541 385 540.6C384.3 540.1 383.9 539.2 383.9 538V470C383.9 467.4 385.7 464.3 387.9 463L684.8 291.5C685.9 290.8 686.9 290.8 687.7 291.2C688.3 291.6 693.6 294.6 695.1 295.5Z" fill="#4c00ff"/>
<g opacity="0.2">
<path d="M695.1 295.5C693.6 294.6 688.3 291.6 687.7 291.2C686.9 290.8 685.9 290.8 684.8 291.5L387.9 463C386.8 463.6 385.8 464.7 385.1 466L392.7 470.4C393.4 469.1 394.4 468 395.5 467.4L692.4 295.9C693.4 295.3 694.4 295.2 695.1 295.5Z" fill="white"/>
</g>
<path d="M395.5 467.4L692.4 295.9C694.6 294.6 696.4 295.6 696.4 298.2V366.2C696.4 368.8 694.6 371.9 692.4 373.2L395.5 544.7C393.3 546 391.5 544.9 391.5 542.3V474.4C391.5 471.8 393.3 468.6 395.5 467.4Z" fill="#FAFAFA"/>
<path d="M392.7 470.4L385.1 466C384.3 467.3 383.9 468.7 383.9 470V538C383.9 539.2 384.3 540.1 385 540.6C385.8 541 391.9 544.5 392.6 544.9C391.9 544.5 391.5 543.6 391.5 542.3V474.4C391.5 473.1 391.9 471.7 392.7 470.4Z" fill="#4c00ff"/>
<path opacity="0.1" d="M392.7 470.4L385.1 466C384.3 467.3 383.9 468.7 383.9 470V538C383.9 539.2 384.3 540.1 385 540.6C385.8 541 391.9 544.5 392.6 544.9C391.9 544.5 391.5 543.6 391.5 542.3V474.4C391.5 473.1 391.9 471.7 392.7 470.4Z" fill="black"/>
<path fill-rule="evenodd" clip-rule="evenodd" d="M696.4 298.2V366.2C696.4 368.8 694.6 371.9 692.4 373.2L395.5 544.7C394.833 545.033 394.233 545.2 393.7 545.2C392.4 545.2 391.5 544.2 391.5 542.3V474.4C391.5 471.8 393.3 468.6 395.5 467.4L692.4 295.9C693.067 295.5 693.667 295.3 694.2 295.3C695.5 295.3 696.4 296.4 696.4 298.2ZM693.3 297.5L396.5 469C394.8 469.9 393.3 472.5 393.3 474.4V542.3C393.3 542.4 393.3 543.4 393.7 543.4C393.8 543.4 394.1 543.3 394.6 543.1L691.4 371.6C693.1 370.6 694.6 368.1 694.6 366.2V298.2C694.6 298.1 694.5 297.2 694.2 297.2C694.1 297.2 693.8 297.2 693.3 297.5Z" fill="#4c00ff"/>
<path d="M448.7 461.5C452.7 463.8 455.2 468.8 455.2 475.9C455.2 490.1 445.2 507.4 432.9 514.5C426.7 518.1 421.2 518.4 417.1 516.1C414.7 514.7 412.5 513.4 410 512C406 509.6 403.5 504.7 403.5 497.5C403.5 483.3 413.5 466 425.8 458.9C431.9 455.4 437.5 455.1 441.6 457.4C444 458.8 446.2 460.1 448.7 461.5Z" fill="#4c00ff"/>
<path opacity="0.2" d="M448.7 461.5C452.7 463.8 455.2 468.8 455.2 475.9C455.2 490.1 445.2 507.4 432.9 514.5C426.7 518.1 421.2 518.4 417.1 516.1C414.7 514.7 412.5 513.4 410 512C406 509.6 403.5 504.7 403.5 497.5C403.5 483.3 413.5 466 425.8 458.9C431.9 455.4 437.5 455.1 441.6 457.4C444 458.8 446.2 460.1 448.7 461.5Z" fill="black"/>
<path d="M432.9 514.5C426.7 518.1 421.2 518.4 417.1 516.1C413.1 513.8 410.6 508.8 410.6 501.7C410.6 487.4 420.6 470.2 432.9 463C439.1 459.5 444.6 459.2 448.7 461.5C452.7 463.8 455.2 468.8 455.2 475.9C455.2 490.1 445.2 507.4 432.9 514.5Z" fill="#4c00ff"/>
<path d="M444.7 478.7L435.3 484.2V471.6C435.3 469.8 434.2 469 432.9 469.8C431.6 470.6 430.5 472.6 430.5 474.4V487L421.1 492.4C419.7 493.2 418.7 495.2 418.7 497C418.7 498.8 419.7 499.6 421.1 498.8L430.5 493.4V506C430.5 507.7 431.6 508.5 432.9 507.8C434.2 507 435.3 505 435.3 503.2V490.6L444.7 485.1C446.1 484.4 447.1 482.3 447.1 480.6C447.1 478.8 446.1 478 444.7 478.7Z" fill="#FAFAFA"/>
<path d="M470.5 455.5L679.6 334.8C682.3 333.2 684.6 328.9 684.6 325.3C684.6 321.6 682.3 319.9 679.6 321.5L470.5 442.2C467.8 443.8 465.5 448.1 465.5 451.8C465.5 455.4 467.8 457.1 470.5 455.5ZM679.6 349.5L470.5 470.2C467.8 471.8 465.5 476.1 465.5 479.8C465.5 483.4 467.8 485.1 470.5 483.5L679.6 362.8C682.3 361.2 684.6 356.9 684.6 353.3C684.6 349.6 682.3 347.9 679.6 349.5Z" fill="#E0E0E0"/>
<g opacity="0.2">
<path d="M378.8 568.7L679.1 395.2C680.4 394.4 681.4 395 681.4 396.5V468.2C681.4 469.6 680.4 471.4 679.1 472.1L378.8 645.6C377.5 646.4 376.5 645.8 376.5 644.3V572.6C376.5 571.2 377.5 569.4 378.8 568.7Z" fill="black"/>
</g>
<path d="M695.1 404.7C694.4 404.3 693.4 404.4 692.4 405L395.5 576.5C393.3 577.8 391.5 580.9 391.5 583.5V651.5C391.5 652.7 391.9 653.6 392.6 654.1C391.9 653.6 385.8 650.2 385 649.7C384.3 649.3 383.9 648.4 383.9 647.1V579.1C383.9 576.6 385.7 573.4 387.9 572.1L684.8 400.6C685.9 400 686.9 399.9 687.7 400.4C688.3 400.8 693.6 403.8 695.1 404.7Z" fill="#4c00ff"/>
<g opacity="0.2">
<path d="M695.1 404.7C693.6 403.8 688.3 400.8 687.7 400.4C686.9 399.9 685.9 400 684.8 400.6L387.9 572.1C386.8 572.8 385.8 573.9 385.1 575.1L392.7 579.5C393.4 578.3 394.4 577.2 395.5 576.5L692.4 405C693.4 404.4 694.4 404.3 695.1 404.7Z" fill="white"/>
</g>
<path d="M395.5 576.5L692.4 405C694.6 403.7 696.4 404.8 696.4 407.4V475.3C696.4 477.9 694.6 481.1 692.4 482.4L395.5 653.8C393.3 655.1 391.5 654.1 391.5 651.5V583.5C391.5 580.9 393.3 577.8 395.5 576.5Z" fill="#FAFAFA"/>
<path d="M392.7 579.5L385.1 575.1C384.3 576.4 383.9 577.9 383.9 579.1V647.1C383.9 648.4 384.3 649.3 385 649.7C385.8 650.2 391.9 653.6 392.6 654.1C391.9 653.6 391.5 652.7 391.5 651.5V583.5C391.5 582.2 391.9 580.8 392.7 579.5Z" fill="#4c00ff"/>
<path opacity="0.1" d="M392.7 579.5L385.1 575.1C384.3 576.4 383.9 577.9 383.9 579.1V647.1C383.9 648.4 384.3 649.3 385 649.7C385.8 650.2 391.9 653.6 392.6 654.1C391.9 653.6 391.5 652.7 391.5 651.5V583.5C391.5 582.2 391.9 580.8 392.7 579.5Z" fill="black"/>
<path fill-rule="evenodd" clip-rule="evenodd" d="M696.4 407.4V475.3C696.4 477.9 694.6 481.1 692.4 482.4L395.5 653.8C394.833 654.2 394.233 654.4 393.7 654.4C392.4 654.4 391.5 653.3 391.5 651.5V583.5C391.5 580.9 393.3 577.8 395.5 576.5L692.4 405C693.067 404.667 693.667 404.5 694.2 404.5C695.5 404.5 696.4 405.5 696.4 407.4ZM693.3 406.7L396.5 578.1C394.8 579.1 393.3 581.6 393.3 583.5V651.5C393.3 651.6 393.3 652.5 393.7 652.5C393.8 652.5 394.1 652.5 394.6 652.2L691.4 480.7C693.1 479.8 694.6 477.3 694.6 475.3V407.4C694.6 407.3 694.5 406.4 694.2 406.4C694.1 406.4 693.8 406.4 693.3 406.7Z" fill="#4c00ff"/>
<path d="M448.7 570.6C452.7 573 455.2 578 455.2 585.1C455.2 599.3 445.2 616.6 432.9 623.7C426.7 627.2 421.2 627.6 417.1 625.2C414.7 623.8 412.5 622.5 410 621.1C406 618.8 403.5 613.8 403.5 606.7C403.5 592.5 413.5 575.2 425.8 568.1C431.9 564.5 437.5 564.2 441.6 566.5C444 567.9 446.2 569.2 448.7 570.6Z" fill="#4c00ff"/>
<path opacity="0.2" d="M448.7 570.6C452.7 573 455.2 578 455.2 585.1C455.2 599.3 445.2 616.6 432.9 623.7C426.7 627.2 421.2 627.6 417.1 625.2C414.7 623.8 412.5 622.5 410 621.1C406 618.8 403.5 613.8 403.5 606.7C403.5 592.5 413.5 575.2 425.8 568.1C431.9 564.5 437.5 564.2 441.6 566.5C444 567.9 446.2 569.2 448.7 570.6Z" fill="black"/>
<path d="M432.9 623.7C426.7 627.2 421.2 627.6 417.1 625.2C413.1 622.9 410.6 617.9 410.6 610.8C410.6 596.6 420.6 579.3 432.9 572.2C439.1 568.6 444.6 568.3 448.7 570.6C452.7 573 455.2 578 455.2 585.1C455.2 599.3 445.2 616.6 432.9 623.7Z" fill="#4c00ff"/>
<path d="M444.7 587.9L435.3 593.3V580.8C435.3 579 434.2 578.2 432.9 578.9C431.6 579.7 430.5 581.8 430.5 583.5V596.1L421.1 601.6C419.7 602.3 418.7 604.4 418.7 606.2C418.7 607.9 419.7 608.7 421.1 608L430.5 602.5V615.1C430.5 616.9 431.6 617.7 432.9 616.9C434.2 616.2 435.3 614.1 435.3 612.3V599.7L444.7 594.3C446.1 593.5 447.1 591.5 447.1 589.7C447.1 587.9 446.1 587.1 444.7 587.9Z" fill="#FAFAFA"/>
<path d="M470.5 564.7L679.6 443.9C682.3 442.4 684.6 438.1 684.6 434.4C684.6 430.7 682.3 429.1 679.6 430.6L470.5 551.4C467.8 553 465.5 557.2 465.5 560.9C465.5 564.6 467.8 566.3 470.5 564.7ZM679.6 458.6L470.5 579.4C467.8 581 465.5 585.2 465.5 588.9C465.5 592.6 467.8 594.3 470.5 592.7L679.6 471.9C682.3 470.4 684.6 466.1 684.6 462.4C684.6 458.7 682.3 457.1 679.6 458.6Z" fill="#E0E0E0"/>
<g opacity="0.2">
<path d="M378.8 677.8L679.1 504.3C680.4 503.6 681.4 504.2 681.4 505.6V577.3C681.4 578.8 680.4 580.6 679.1 581.3L378.8 754.8C377.5 755.5 376.5 754.9 376.5 753.5V681.8C376.5 680.3 377.5 678.5 378.8 677.8Z" fill="black"/>
</g>
<path d="M695.1 513.8C694.4 513.5 693.4 513.6 692.4 514.2L395.5 685.7C393.3 687 391.5 690.1 391.5 692.7V760.6C391.5 761.9 391.9 762.8 392.6 763.2C391.9 762.8 385.8 759.3 385 758.9C384.3 758.4 383.9 757.5 383.9 756.3V688.3C383.9 685.7 385.7 682.6 387.9 681.3L684.8 509.8C685.9 509.1 686.9 509.1 687.7 509.5C688.3 509.9 693.6 512.9 695.1 513.8Z" fill="#4c00ff"/>
<g opacity="0.2">
<path d="M695.1 513.8C693.6 512.9 688.3 509.9 687.7 509.5C686.9 509.1 685.9 509.1 684.8 509.8L387.9 681.3C386.8 681.9 385.8 683 385.1 684.3L392.7 688.7C393.4 687.4 394.4 686.3 395.5 685.7L692.4 514.2C693.4 513.6 694.4 513.5 695.1 513.8Z" fill="white"/>
</g>
<path d="M395.5 685.7L692.4 514.2C694.6 512.9 696.4 513.9 696.4 516.5V584.5C696.4 587.1 694.6 590.2 692.4 591.5L395.5 763C393.3 764.3 391.5 763.2 391.5 760.6V692.7C391.5 690.1 393.3 687 395.5 685.7Z" fill="#FAFAFA"/>
<path d="M392.7 688.7L385.1 684.3C384.3 685.6 383.9 687 383.9 688.3V756.3C383.9 757.5 384.3 758.4 385 758.9C385.8 759.3 391.9 762.8 392.6 763.2C391.9 762.8 391.5 761.9 391.5 760.6V692.7C391.5 691.4 391.9 690 392.7 688.7Z" fill="#4c00ff"/>
<path opacity="0.1" d="M392.7 688.7L385.1 684.3C384.3 685.6 383.9 687 383.9 688.3V756.3C383.9 757.5 384.3 758.4 385 758.9C385.8 759.3 391.9 762.8 392.6 763.2C391.9 762.8 391.5 761.9 391.5 760.6V692.7C391.5 691.4 391.9 690 392.7 688.7Z" fill="black"/>
<path fill-rule="evenodd" clip-rule="evenodd" d="M696.4 516.5V584.5C696.4 587.1 694.6 590.2 692.4 591.5L395.5 763C394.833 763.333 394.233 763.5 393.7 763.5C392.4 763.5 391.5 762.5 391.5 760.6V692.7C391.5 690.1 393.3 687 395.5 685.7L692.4 514.2C693.067 513.8 693.667 513.6 694.2 513.6C695.5 513.6 696.4 514.7 696.4 516.5ZM693.3 515.8L396.5 687.3C394.8 688.2 393.3 690.8 393.3 692.7V760.6C393.3 760.7 393.3 761.7 393.7 761.7C393.8 761.7 394.1 761.6 394.6 761.4L691.4 589.9C693.1 588.9 694.6 586.4 694.6 584.5V516.5C694.6 516.4 694.5 515.5 694.2 515.5C694.1 515.5 693.8 515.5 693.3 515.8Z" fill="#4c00ff"/>
<path d="M448.7 679.8C452.7 682.1 455.2 687.1 455.2 694.2C455.2 708.4 445.2 725.7 432.9 732.8C426.7 736.4 421.2 736.7 417.1 734.4C414.7 733 412.5 731.7 410 730.3C406 728 403.5 723 403.5 715.9C403.5 701.6 413.5 684.4 425.8 677.2C431.9 673.7 437.5 673.4 441.6 675.7C444 677.1 446.2 678.4 448.7 679.8Z" fill="#4c00ff"/>
<path opacity="0.2" d="M448.7 679.8C452.7 682.1 455.2 687.1 455.2 694.2C455.2 708.4 445.2 725.7 432.9 732.8C426.7 736.4 421.2 736.7 417.1 734.4C414.7 733 412.5 731.7 410 730.3C406 728 403.5 723 403.5 715.9C403.5 701.6 413.5 684.4 425.8 677.2C431.9 673.7 437.5 673.4 441.6 675.7C444 677.1 446.2 678.4 448.7 679.8Z" fill="black"/>
<path d="M432.9 732.8C426.7 736.4 421.2 736.7 417.1 734.4C413.1 732.1 410.6 727.1 410.6 720C410.6 705.7 420.6 688.5 432.9 681.4C439.1 677.8 444.6 677.5 448.7 679.8C452.7 682.1 455.2 687.1 455.2 694.2C455.2 708.4 445.2 725.7 432.9 732.8Z" fill="#4c00ff"/>
<path d="M444.7 697.1L435.3 702.5V689.9C435.3 688.1 434.2 687.3 432.9 688.1C431.6 688.9 430.5 690.9 430.5 692.7V705.3L421.1 710.7C419.7 711.5 418.7 713.5 418.7 715.3C418.7 717.1 419.7 717.9 421.1 717.1L430.5 711.7V724.3C430.5 726 431.6 726.8 432.9 726.1C434.2 725.3 435.3 723.3 435.3 721.5V708.9L444.7 703.5C446.1 702.7 447.1 700.6 447.1 698.9C447.1 697.1 446.1 696.3 444.7 697.1Z" fill="#FAFAFA"/>
<path d="M470.5 673.8L679.6 553.1C682.3 551.5 684.6 547.2 684.6 543.6C684.6 539.9 682.3 538.2 679.6 539.8L470.5 660.5C467.8 662.1 465.5 666.4 465.5 670.1C465.5 673.7 467.8 675.4 470.5 673.8ZM679.6 567.8L470.5 688.5C467.8 690.1 465.5 694.4 465.5 698.1C465.5 701.7 467.8 703.4 470.5 701.8L679.6 581.1C682.3 579.5 684.6 575.2 684.6 571.6C684.6 567.9 682.3 566.2 679.6 567.8Z" fill="#E0E0E0"/>
<path fill-rule="evenodd" clip-rule="evenodd" d="M219.9 266.3C220.2 264.8 220.7 263.7 221.2 262.9C219 261.3 218.2 258.5 218.6 256.3C219.1 253.7 220.7 252.3 222.2 251.7C221.4 250.5 220.8 248.7 221.2 246.5C221.8 243.8 224.5 240.3 228.8 241.1L244.8 244.3C244.8 239.1 246.1 234.8 249.2 230.2C252 226 256.9 226 259.4 227C261.4 227.8 261.4 229 261.3 229.5C261.2 229.9 261 230.6 260.8 231.6C260.2 233.9 258.8 239.4 259 240.7C259.3 242.1 262.7 250.5 264.9 255.8C265.033 256 265.067 256.2 265 256.4L258.6 289C258.5 289.6 258 289.9 257.5 289.9C257.433 289.9 257.367 289.9 257.3 289.9L228.5 284.2C223.8 283.3 221.6 279.4 222.2 276.2C222.5 275 222.9 273.9 223.3 273.2C220.9 271.8 219.5 268.3 219.9 266.3ZM225.1 271.5C225.5 271.6 225.8 271.8 225.9 272.2C226.1 272.5 226 272.9 225.8 273.3C225.8 273.3 224.8 274.7 224.5 276.6C224 278.7 225.7 281.4 228.9 282L256.6 287.5L262.7 256.3C261.7 254 257.2 243.1 256.8 241.2C256.5 239.5 257.5 235.4 258.6 231C258.8 230.3 258.9 229.7 259 229.4C258.6 229.1 257.5 228.7 256 228.7C254.8 228.8 252.5 229.2 251.1 231.4C248 236 246.8 240.3 247.1 245.6C247.2 245.9 247 246.3 246.8 246.5C246.5 246.7 246.1 246.8 245.8 246.8L228.4 243.3C225.3 242.7 223.7 245.5 223.5 246.9C222.9 249.5 224.5 251 224.9 251.5C225.3 251.8 225.4 252.3 225.2 252.7C225.1 253.1 224.7 253.4 224.2 253.4C224.1 253.5 221.4 253.6 220.8 256.7C220.5 258.4 221.3 260.7 223.4 261.6C223.7 261.7 224 262.1 224 262.5C224.1 262.9 223.9 263.3 223.6 263.5C223.6 263.5 222.5 264.5 222.1 266.8C221.8 268.1 223.4 271.2 225.1 271.5ZM267.1 255.9C267.2 255.3 267.8 254.8 268.4 255L281 257.4C281.3 257.5 281.6 257.7 281.7 257.9C281.9 258.2 282 258.5 281.9 258.8L274.4 296.7C274.3 297.2 273.8 297.6 273.3 297.6C273.233 297.6 273.167 297.6 273.1 297.6L260.6 295.1C260.3 295.1 260 294.9 259.8 294.6C259.7 294.4 259.6 294.1 259.7 293.8L267.1 255.9ZM272.4 295.2L279.4 259.5L269.1 257.4L262.1 293.1L272.4 295.2Z" fill="#E0E0E0"/>
<path fill-rule="evenodd" clip-rule="evenodd" d="M264.7 48.9C264.5 45.2 257 32.4 255.9 29.9C254.7 27.5 265.9 21.1 273.7 28.3C281.5 35.4 285.2 42.6 286.9 51.9L315.2 38.7C321.2 35.9 326.2 40.3 327.7 43.7C329.9 48.4 328.1 52.4 327 54C327 54 333.3 52.8 336.4 59.4C338.1 63 337.3 68.2 333.5 71.1C333.5 71.1 336.3 72.4 338.4 77C339.9 80 338.3 87.1 334.3 88.9C334.3 88.9 336.8 91.1 338.6 94.8C340.6 99.2 338.4 105.6 332.3 108.5C326.2 111.3 285.5 130.3 285.5 130.3L260.9 77.4C260.9 77.4 264.9 52.5 264.7 48.9ZM253.5 79L282.1 140.5L261.7 150L233.1 88.5L253.5 79ZM267.6 139.7C269.8 139.7 271.6 137.9 271.6 135.6C271.5 133.4 269.7 131.7 267.5 131.7C265.3 131.7 263.5 133.5 263.5 135.8C263.6 138 265.4 139.8 267.6 139.7Z" fill="#EBEBEB"/>
<path d="M248.8 437C246.7 437 244.8 436.1 243.4 434.7L227 417.1C224.2 414.1 224.4 409.5 227.3 406.8C230.2 404.1 234.8 404.2 237.6 407.1L248.3 418.6L273.6 386.5C276.1 383.3 280.7 382.8 283.8 385.3C287 387.8 287.5 392.4 285 395.5L254.5 434.2C253.1 435.9 251.2 436.9 249.1 437C248.967 437 248.867 437 248.8 437Z" fill="#EBEBEB"/>
<path fill-rule="evenodd" clip-rule="evenodd" d="M439 84.7C436.3 84.7 433.7 83.5 431.8 81.5L412.8 61.3C409.1 57.3 409.3 51 413.3 47.3C415.2 45.5 417.8 44.6 420.4 44.7C423 44.7 425.5 45.8 427.3 47.8L438.4 59.7L466.5 24.1C468.1 22 470.4 20.7 473.1 20.4C475.7 20.1 478.3 20.8 480.3 22.5C482.4 24.1 483.7 26.4 484 29.1C484.3 31.7 483.6 34.3 482 36.3L446.8 80.9C445 83.2 442.3 84.5 439.4 84.6C439.267 84.6667 439.133 84.7 439 84.7ZM420 47.6C418.3 47.6 416.6 48.3 415.4 49.5C412.6 52.1 412.5 56.5 415 59.2L434 79.5C435.3 80.9 437.1 81.7 439 81.7L439.3 81.6C441.3 81.6 443.2 80.6 444.4 79L479.6 34.5C480.7 33 481.3 31.2 481 29.4C480.8 27.6 479.9 26 478.5 24.8C477 23.7 475.2 23.2 473.4 23.4C471.6 23.6 470 24.5 468.8 26L438.6 64.3L425.1 49.8C423.8 48.5 422.1 47.7 420.3 47.7C420.233 47.6333 420.133 47.6 420 47.6Z" fill="#E0E0E0"/>
</svg>
