<svg width="1000" height="1000" viewBox="0 0 1000 1000" fill="none" xmlns="http://www.w3.org/2000/svg">
<path d="M43.2 351.9C43.2 351.9 81.7 189.2 233.5 109.9C385.2 30.7 566.1 64.5 713.4 87.7C860.7 111 954.5 223.7 944.5 359C934.4 494.2 815.6 507 724.9 642.5C634.2 778.1 629.5 828.4 483.3 890.9C337.2 953.3 149.5 850.6 77.2 668.9C5 487.2 43.2 351.9 43.2 351.9Z" fill="#E91F38"/>
<path opacity="0.7" d="M43.2 351.9C43.2 351.9 81.7 189.2 233.5 109.9C385.2 30.7 566.1 64.5 713.4 87.7C860.7 111 954.5 223.7 944.5 359C934.4 494.2 815.6 507 724.9 642.5C634.2 778.1 629.5 828.4 483.3 890.9C337.2 953.3 149.5 850.6 77.2 668.9C5 487.2 43.2 351.9 43.2 351.9Z" fill="white"/>
<path d="M860 905C860 922.1 694.8 936 491 936C287.2 936 122 922.1 122 905C122 887.9 287.2 874 491 874C694.8 874 860 887.9 860 905Z" fill="#EBEBEB"/>
<g opacity="0.1">
<path fill-rule="evenodd" clip-rule="evenodd" d="M343.6 156.7H302.3V115.4H343.6V156.7ZM305.1 153.9H340.8V118.2H305.1V153.9Z" fill="black"/>
<path d="M324.3 143.8L313.5 130.6C312.8 129.7 312.9 128.4 313.8 127.6C314.7 126.9 316.1 127 316.8 127.9L324.7 137.6L351.2 113.2C352 112.4 353.4 112.4 354.1 113.3C354.9 114.1 354.9 115.5 354 116.3L324.3 143.8Z" fill="black"/>
</g>
<g opacity="0.1">
<path d="M502.5 129.7H360V126.2H502.5V129.7Z" fill="black"/>
</g>
<g opacity="0.1">
<path d="M448.8 143.4H360V139.8H448.8V143.4Z" fill="black"/>
</g>
<g opacity="0.1">
<path fill-rule="evenodd" clip-rule="evenodd" d="M373.9 806.4H332.6V765.1H373.9V806.4ZM335.4 803.6H371.1V768H335.4V803.6Z" fill="black"/>
<path d="M354.6 793.5L343.8 780.4C343.1 779.5 343.2 778.1 344.1 777.4C345 776.7 346.3 776.8 347.1 777.7L355 787.4L381.4 762.9C382.3 762.1 383.6 762.2 384.4 763C385.2 763.9 385.1 765.2 384.3 766L354.6 793.5Z" fill="black"/>
</g>
<g opacity="0.1">
<path d="M532.7 779.5H390.3V775.9H532.7V779.5Z" fill="black"/>
</g>
<g opacity="0.1">
<path d="M479.1 793.2H390.3V789.6H479.1V793.2Z" fill="black"/>
</g>
<g opacity="0.1">
<path fill-rule="evenodd" clip-rule="evenodd" d="M156.9 382.8H102.3V309.1H156.9V382.8ZM104.1 381H155.1V310.8H104.1V381Z" fill="black"/>
<path d="M146.1 326.2H113.3V324.5H146.1V326.2Z" fill="black"/>
<path d="M146.1 337H113.3V335.2H146.1V337Z" fill="black"/>
<path d="M146.1 347.7H113.3V345.9H146.1V347.7Z" fill="black"/>
<path d="M146.1 358.4H113.3V356.6H146.1V358.4Z" fill="black"/>
<path d="M146.1 369.1H113.3V367.3H146.1V369.1Z" fill="black"/>
</g>
<g opacity="0.1">
<path fill-rule="evenodd" clip-rule="evenodd" d="M885 593.6H787.3V461.6H885V593.6ZM790.5 590.4H881.8V464.7H790.5V590.4Z" fill="black"/>
<path d="M865.7 492.3H806.9V489.1H865.7V492.3Z" fill="black"/>
<path d="M865.7 511.5H806.9V508.3H865.7V511.5Z" fill="black"/>
<path d="M865.7 530.7H806.9V527.5H865.7V530.7Z" fill="black"/>
<path d="M865.7 549.9H806.9V546.7H865.7V549.9Z" fill="black"/>
<path d="M865.7 569.1H806.9V565.9H865.7V569.1Z" fill="black"/>
</g>
<g opacity="0.1">
<path fill-rule="evenodd" clip-rule="evenodd" d="M442.1 413.4C442.1 438.2 422 458.3 397.3 458.3C372.6 458.3 352.4 438.2 352.4 413.4C352.4 388.7 372.6 368.6 397.3 368.6C422 368.6 442.1 388.7 442.1 413.4ZM440.4 413.4C440.4 389.7 421 370.4 397.3 370.4C373.5 370.4 354.2 389.7 354.2 413.4C354.2 437.2 373.5 456.5 397.3 456.5C421 456.5 440.4 437.2 440.4 413.4Z" fill="black"/>
<path d="M398.3 407.6V380.6H396.5V407.6C393.6 408 391.4 410.5 391.4 413.4C391.4 416.7 394 419.3 397.3 419.3C400.5 419.3 403.2 416.7 403.2 413.4H426.2V411.6H402.9C402.2 409.5 400.4 408 398.3 407.6Z" fill="black"/>
</g>
<g opacity="0.1">
<path fill-rule="evenodd" clip-rule="evenodd" d="M251.7 180.9C251.7 221.7 218.4 254.9 177.6 254.9C136.8 254.9 103.6 221.7 103.6 180.9C103.6 140.1 136.8 106.9 177.6 106.9C218.4 106.9 251.7 140.1 251.7 180.9ZM248.7 180.9C248.7 141.7 216.8 109.8 177.6 109.8C138.4 109.8 106.5 141.7 106.5 180.9C106.5 220.1 138.4 252 177.6 252C216.8 252 248.7 220.1 248.7 180.9Z" fill="black"/>
<path d="M179.2 171.3V126.7H176.3V171.3C171.5 172 167.9 176 167.9 180.9C167.9 186.3 172.2 190.7 177.6 190.7C183 190.7 187.4 186.3 187.4 180.9C187.4 180.9 187.4 180.867 187.4 180.8H225.4V177.9H186.8C185.7 174.5 182.8 171.9 179.2 171.3Z" fill="black"/>
</g>
<g opacity="0.1">
<path fill-rule="evenodd" clip-rule="evenodd" d="M910 715.9V748.1C910 751.3 907.4 754 904.2 754H866.2C862.9 754 860.3 751.3 860.3 748.1V715.9C860.3 712.7 862.9 710.1 866.2 710.1H873.5V705.2H875.3V710.1H896.7V705.2H898.4V710.1H904.2C907.4 710.1 910 712.7 910 715.9ZM862.1 715.9V724.1H908.2V715.9C908.2 713.7 906.4 711.8 904.2 711.8H898.4V715.9H896.7V711.8H875.3V715.9H873.5V711.8H866.2C863.9 711.8 862.1 713.7 862.1 715.9ZM908.2 748.1V725.9H862.1V748.1C862.1 750.4 863.9 752.2 866.2 752.2H904.2C906.4 752.2 908.2 750.4 908.2 748.1Z" fill="black"/>
<path d="M871.1 735H900V733.2H871.1V735Z" fill="black"/>
<path d="M871.1 742.4H900V740.6H871.1V742.4Z" fill="black"/>
</g>
<g opacity="0.1">
<path fill-rule="evenodd" clip-rule="evenodd" d="M207.6 658.8V722.3C207.6 728.6 202.4 733.8 196.1 733.8H121.2C114.9 733.8 109.7 728.6 109.7 722.3V658.8C109.7 652.5 114.9 647.3 121.2 647.3H135.7V637.6H139.2V647.3H181.3V637.6H184.8V647.3H196.1C202.4 647.3 207.6 652.5 207.6 658.8ZM113.2 658.8V674.9H204.1V658.8C204.1 654.4 200.5 650.8 196.1 650.8H184.8V658.8H181.3V650.8H139.2V658.8H135.7V650.8H121.2C116.8 650.8 113.2 654.4 113.2 658.8ZM204.1 722.3V678.5H113.2V722.3C113.2 726.7 116.8 730.3 121.2 730.3H196.1C200.5 730.3 204.1 726.7 204.1 722.3Z" fill="black"/>
<path d="M131 696.4H187.9V692.8H131V696.4Z" fill="black"/>
<path d="M131 711H187.9V707.5H131V711Z" fill="black"/>
</g>
<g opacity="0.1">
<path fill-rule="evenodd" clip-rule="evenodd" d="M443 187.5V219.7C443 222.9 440.4 225.5 437.2 225.5H399.2C396 225.5 393.3 222.9 393.3 219.7V187.5C393.3 184.3 396 181.6 399.2 181.6H406.5V176.7H408.3V181.6H429.7V176.7H431.4V181.6H437.2C440.4 181.6 443 184.3 443 187.5ZM395.1 187.5V195.7H441.2V187.5C441.2 185.2 439.4 183.4 437.2 183.4H431.4V187.5H429.7V183.4H408.3V187.5H406.5V183.4H399.2C396.9 183.4 395.1 185.2 395.1 187.5ZM441.2 219.7V197.5H395.1V219.7C395.1 221.9 396.9 223.7 399.2 223.7H437.2C439.4 223.7 441.2 221.9 441.2 219.7Z" fill="black"/>
<path d="M404.1 206.5H433V204.8H404.1V206.5Z" fill="black"/>
<path d="M404.1 214H433V212.2H404.1V214Z" fill="black"/>
</g>
<g opacity="0.1">
<path fill-rule="evenodd" clip-rule="evenodd" d="M898.7 174.9V217.7C898.7 222 895.2 225.5 890.9 225.5H840.4C836.1 225.5 832.6 222 832.6 217.7V174.9C832.6 170.6 836.1 167.1 840.4 167.1H850.2V160.6H852.5V167.1H881V160.6H883.3V167.1H890.9C895.2 167.1 898.7 170.6 898.7 174.9ZM834.9 174.9V185.8H896.4V174.9C896.4 171.9 893.9 169.4 890.9 169.4H883.3V174.9H881V169.4H852.5V174.9H850.2V169.4H840.4C837.4 169.4 834.9 171.9 834.9 174.9ZM896.4 217.7V188.1H834.9V217.7C834.9 220.7 837.4 223.2 840.4 223.2H890.9C893.9 223.2 896.4 220.7 896.4 217.7Z" fill="black"/>
<path d="M847 200.2H885.4V197.9H847V200.2Z" fill="black"/>
<path d="M847 210.1H885.4V207.8H847V210.1Z" fill="black"/>
</g>
<path d="M244.1 708.3C251.9 705.5 265 692.5 265 692.5C265.1 692.3 253.8 686.4 253 686.1C244.2 682.8 225.2 681.4 218.6 689.6C213.9 695.6 216 703.9 222.1 707.9C228.4 711.9 237.5 710.7 244.1 708.3Z" fill="#E91F38"/>
<path d="M382.7 582.4C382.9 582.3 376.6 571.1 376.2 570.5C370.7 562.8 355.6 551.2 345.6 554.4C338.3 556.8 335.5 564.9 338.4 571.6C341.4 578.4 349.6 582.4 356.5 584.1C364.5 586 382.7 582.4 382.7 582.4Z" fill="#E91F38"/>
<path d="M376.5 495.7C368.2 502.1 369 521.1 372.2 530C372.4 530.7 378.1 542.2 378.2 542.1C378.2 542.1 378.3 542 378.4 541.9C378.5 544.9 378.6 548.2 378.9 551.7C379.4 558.2 380 565.5 381.2 573.4C382.4 581.3 383.9 589.9 386.3 598.7C388.7 607.6 391.7 616.9 396 626C396.067 626.133 396.133 626.233 396.2 626.3C394.1 624 388 617.9 387.5 617.4C380.2 611.5 362.6 604.3 353.7 610.1C347.4 614.2 346.8 622.8 351.4 628.5C356.1 634.3 365.1 636 372.1 635.8C380 635.5 395.5 627.9 396.7 627.3C400.9 636 405.9 644.5 411.4 652.9C414.5 657.6 417.9 662.4 421.3 667.1C419.4 665.1 417.7 663.5 417.4 663.2C410.1 657.3 392.5 650.1 383.7 655.9C377.3 660 376.8 668.6 381.3 674.3C386 680.1 395 681.8 402 681.6C409.2 681.3 422.5 675.1 426 673.4C427.267 675.2 428.567 677 429.9 678.8C436.3 687.4 442.7 695.9 448.7 704.4C450.8 707.4 452.8 710.4 454.8 713.5C453.1 711.8 451.7 710.3 451.5 710.2C444.1 704.2 426.5 697 417.7 702.8C411.3 706.9 410.8 715.5 415.3 721.2C420 727 429 728.7 436.1 728.5C442.9 728.3 455.2 722.6 459.3 720.7C461.3 723.8 463.2 727 465 730.1C466.1 732.3 467.4 734.3 468.4 736.6C469.467 738.8 470.5 741 471.5 743.2C473.4 747.4 475.3 751.8 477 756C478.2 758.9 479.3 761.7 480.4 764.5C478.4 761.5 474.2 755.6 473.8 755.2C469.6 750.6 461 744.7 452.8 742.6C452.2 741.867 451.533 741.233 450.8 740.7C445 736.3 436.4 737.1 432.4 743.5C426.9 752.5 434.5 769.9 440.7 777.1C441 777.5 445.5 781.6 448.3 784.2C446.4 783 444.6 781.7 442.6 780.5C438.7 777.9 434.8 775.5 430.5 772.9C428.433 771.7 426.333 770.5 424.2 769.3C422.1 768 419.8 767 417.5 765.8C412.3 763.2 406.8 760.8 401.3 758.5C403.5 755.1 411.2 742.9 412.3 736C413.4 729 412.8 719.9 407.7 714.5C402.6 709.2 394 708.7 389.1 714.5C382.3 722.6 387.2 740.9 392.1 748.9C392.5 749.4 396.7 754.8 399 757.7C395.7 756.3 392.4 754.9 388.9 753.7C379 750.1 368.9 746.7 358.8 743.3C355.733 742.3 352.667 741.267 349.6 740.2C350.4 739 359.8 724.7 361 716.9C362.1 709.9 361.6 700.8 356.5 695.4C351.4 690.1 342.8 689.6 337.9 695.4C331.1 703.5 336 721.8 340.9 729.8C341.3 730.4 347.4 738.1 349 740C342.2 737.6 335.5 735.2 329 732.6C320 729 311.3 725 303.2 720.4C303.6 719.9 313.5 705 314.8 697C315.9 690 315.3 680.9 310.2 675.5C305.1 670.3 296.5 669.7 291.6 675.5C284.8 683.6 289.7 702 294.7 710C295 710.5 299.6 716.3 301.9 719.1C301.7 719.3 301.7 719.3 301.5 719.5C292.9 714.6 285.1 708.7 278.2 702.8C274.2 699.4 270.5 695.9 267 692.5C269.1 689.9 278.7 678 280.7 670.9C282.5 664.1 283 655 278.5 649.1C274 643.3 265.5 641.8 260 647.1C252.3 654.3 255.2 673.1 259.3 681.6C259.5 682.1 262.2 686.5 264.3 689.7C262.8 688.1 261.1 686.5 259.7 685C254.2 679.2 249.5 673.6 245.4 668.5C243.1 665.6 241.1 663 239.2 660.5C240 656.9 242.9 642.2 241.4 635.2C239.9 628.3 236.1 620 229.4 616.8C222.8 613.7 214.6 616.4 212.1 623.5C208.6 633.5 219.8 648.9 227.3 654.5C228 655 239 661.5 239.1 661.3C239.1 661.3 239.1 661.2 239.1 661.1C240.9 663.5 242.8 666.1 244.9 668.9C248.9 674.1 253.4 679.8 258.8 685.8C264.2 691.7 270.2 698 277.1 704.1C284 710.2 291.6 716.3 300.2 721.5C300.267 721.567 300.367 721.633 300.5 721.7C297.5 720.9 289 719.1 288.4 719C279 718.1 260.4 721.8 256.2 731.5C253.1 738.5 257.4 746 264.4 748.2C271.4 750.4 279.9 746.9 285.6 742.8C292.1 738.2 300.8 723.4 301.5 722.2C309.7 727.1 318.6 731.5 327.8 735.4C333.1 737.7 338.5 739.8 343.9 741.8C341.3 741.2 339 740.8 338.6 740.7C329.2 739.8 310.6 743.5 306.4 753.2C303.4 760.2 307.6 767.6 314.6 769.9C321.7 772.1 330.1 768.6 335.9 764.5C341.7 760.4 349.4 747.9 351.3 744.5C353.433 745.3 355.533 746.067 357.6 746.8C367.6 750.4 377.6 754 387.4 757.8C390.8 759.1 394.1 760.6 397.5 762C395.1 761.5 393.2 761.1 392.9 761.1C383.5 760.2 364.8 763.9 360.6 773.6C357.6 780.5 361.9 788 368.8 790.2C375.9 792.5 384.4 788.9 390.1 784.9C395.7 780.9 402.9 769.4 405.2 765.5C408.6 767.1 412 768.6 415.2 770.3C417.3 771.5 419.5 772.5 421.6 773.8C423.667 775.067 425.733 776.3 427.8 777.5C431.7 780.1 435.7 782.6 439.5 785.2C442.1 787 444.5 788.7 447 790.4C443.6 789 436.9 786.5 436.3 786.4C427.2 784 408.2 784.9 402.6 793.8C398.5 800.2 401.6 808.3 408.2 811.5C414.8 814.8 423.7 812.6 430 809.4C436.9 806 447.4 793.2 448.7 791.6C452.8 794.5 456.7 797.3 460.4 800C466.7 804.7 472.4 809 477.3 813L482.3 808.3C476.9 804.3 470.9 799.8 464.1 795C459.9 792 455.5 789 450.8 785.9C451.4 784.7 454.5 777.8 456.6 771C464.6 771.6 479.3 767 481.2 766.4C483 771.1 484.8 775.6 486.3 779.9C488.7 786.6 490.9 792.8 492.7 798.4L498 793.4C496.3 788.5 494.3 783.3 492.2 777.7C490.3 773 488.3 768 486.1 762.8C487.9 761.8 501.9 753 506.2 746.5C510.1 740.7 513.5 732.1 511 725.1C508.6 718.2 501 714.1 494.2 717.3C484.6 721.8 481.3 740.5 482.5 749.9C482.6 750.4 484 756.3 484.9 760C484 757.9 483.2 755.9 482.3 753.7C480.4 749.5 478.5 745.3 476.4 740.8C475.267 738.667 474.167 736.5 473.1 734.3C472 732.1 470.6 729.9 469.4 727.7C466.5 722.6 463.2 717.6 459.9 712.7C463.6 711 476.7 705.1 481.5 699.9C486.2 694.7 490.8 686.8 489.5 679.5C488.2 672.3 481.3 667.1 474 669.2C463.9 672.2 457.8 690.2 457.6 699.6C457.5 700.2 458.1 707 458.5 710.7C456.4 707.7 454.4 704.8 452.2 701.8C446 693.3 439.4 685 432.8 676.6C430.8 674 428.833 671.4 426.9 668.8C428.2 668.3 444 661.5 449.3 655.7C454.1 650.5 458.7 642.6 457.3 635.3C456 628.1 449.1 622.9 441.8 625C431.7 628 425.7 646 425.4 655.4C425.4 656.1 426.2 665.9 426.5 668.4C422.2 662.7 417.9 657 413.9 651.2C408.3 643.2 403.4 635 399.1 626.8C399.7 626.5 416.2 619.6 421.7 613.6C426.4 608.4 431 600.5 429.7 593.2C428.4 586 421.5 580.8 414.2 582.9C404.1 585.9 398 603.9 397.7 613.3C397.7 614 398.4 621.4 398.7 624.9C398.4 625 398.5 625 398.2 625.1C393.7 616.2 390.5 607 388 598.3C386.5 593.2 385.3 588.3 384.3 583.5C387.5 582.5 402.1 577.9 407.6 573.1C412.9 568.4 418.4 561.1 417.8 553.6C417.3 546.4 411 540.4 403.6 541.8C393.2 543.6 385.2 560.8 383.9 570.2C383.8 570.7 383.7 575.9 383.6 579.7C383.2 577.5 382.7 575.3 382.3 573.2C381 565.3 380.2 558.1 379.6 551.6C379.2 547.9 379 544.6 378.8 541.5C381.5 538.9 392 528.3 394.6 521.6C397.2 515 398.6 506 394.7 499.6C390.9 493.4 382.6 491.1 376.5 495.7Z" fill="#E91F38"/>
<path d="M963.6 280.1C957.4 280.2 944.8 274.6 944.8 274.6C944.7 274.6 951 267.4 951.5 267C956.7 262.3 969.5 256.4 976.3 260.3C981.2 263.2 981.9 269.5 978.7 273.9C975.4 278.4 968.8 280 963.6 280.1Z" fill="#E91F38"/>
<path d="M833.7 229.5C833.6 229.5 834.9 220.1 835.1 219.5C836.9 212.7 844.3 200.6 852.1 200.2C857.7 199.9 861.9 204.8 861.6 210.2C861.4 215.7 856.7 220.7 852.4 223.7C847.3 227.2 833.8 229.5 833.7 229.5Z" fill="#E91F38"/>
<path d="M814.9 167.6C822.4 169.8 826.9 183.3 827.1 190.3C827.1 190.9 826.3 200.4 826.1 200.3L826 200.2C826.7 202.4 827.4 204.6 828.2 207.1C829.6 211.8 831.1 217 832.4 222.8C833.6 228.6 834.9 235 835.6 241.8C836.3 248.6 836.7 255.8 836.1 263.3C836.1 263.433 836.1 263.533 836.1 263.6C836.9 261.4 839.5 255.5 839.7 255.1C843.2 249 853.5 239.4 861.2 241C866.7 242.2 869.4 248 867.8 253.2C866.1 258.5 860.2 262 855.3 263.7C849.7 265.7 837 264.5 836 264.4C835.4 271.5 834.2 278.8 832.6 286.1C831.6 290.3 830.6 294.4 829.5 298.6C830.3 296.8 831 295.1 831.1 294.9C834.6 288.8 844.9 279.2 852.6 280.8C858.1 282 860.8 287.8 859.1 293C857.4 298.3 851.6 301.8 846.7 303.5C841.7 305.3 830.8 304.5 827.9 304.3C827.5 305.9 827.067 307.467 826.6 309C824.4 316.7 822.3 324.3 820.4 331.8C819.7 334.5 819.1 337.1 818.5 339.7C819.2 338.1 819.9 336.8 820 336.6C823.5 330.5 833.8 320.8 841.5 322.5C847 323.6 849.7 329.5 848 334.6C846.3 339.9 840.5 343.5 835.5 345.2C830.8 346.9 820.7 346.2 817.3 346C816.8 348.7 816.3 351.4 815.9 354.1C815.7 355.9 815.4 357.6 815.2 359.5C815.067 361.3 814.933 363.1 814.8 364.9C814.6 368.3 814.5 371.9 814.4 375.2C814.3 377.6 814.3 379.8 814.3 382C814.9 379.4 816.3 374.2 816.5 373.8C818.1 369.5 822.6 363.1 827.7 359.5C827.9 358.833 828.2 358.2 828.6 357.6C831.4 353 837.6 351.3 842.1 354.7C848.3 359.5 847.6 373.6 845.3 380.2C845.1 380.6 843.2 384.6 841.9 387.2C842.9 385.8 843.8 384.5 844.8 383.1C846.9 380.3 849 377.5 851.2 374.6C852.333 373.2 853.467 371.8 854.6 370.4C855.8 369 857.1 367.6 858.4 366.2C861.3 363 864.5 359.9 867.7 356.8C865.3 355 856.7 348.6 854.1 344.1C851.5 339.5 849.4 333 851.6 327.9C853.7 322.9 859.5 320.3 864.5 323C871.3 326.8 872.8 340.8 871.5 347.7C871.4 348.1 869.9 353 869 355.6C871 353.8 873 352 875 350.2C880.9 345 887.1 340 893.2 335C895.067 333.4 896.9 331.833 898.7 330.3C897.9 329.7 887.5 322.3 884.6 317.2C882 312.6 879.9 306.1 882 301C884.2 296 890 293.4 895 296.1C901.8 299.9 903.3 313.9 902 320.8C901.9 321.3 899.7 328.3 899.1 330C903.2 326.6 907.2 323.1 911 319.6C916.4 314.7 921.3 309.5 925.7 304.2C925.3 304 914.4 296.3 911.4 291C908.8 286.5 906.8 280 908.9 274.9C911 269.9 916.9 267.2 921.8 270C928.7 273.7 930.2 287.8 928.9 294.7C928.8 295.1 927.1 300.4 926.3 302.9C926.5 303.1 926.5 303 926.7 303.1C931.3 297.4 935.1 291.3 938.4 285.3C940.3 281.9 941.9 278.5 943.4 275.2C941.3 274 931.4 268.2 928.2 263.8C925.1 259.6 922.3 253.4 923.9 248.1C925.5 242.9 931 239.6 936.2 241.8C943.4 244.7 946.5 258.6 945.9 265.6C945.9 265.9 945.1 269.8 944.6 272.5C945.2 271 945.9 269.5 946.5 268C948.8 262.5 950.5 257.4 952 252.8C952.9 250.2 953.6 247.8 954.2 245.6C952.7 243.2 946.8 233.9 945.9 228.6C945.1 223.4 945.6 216.6 949.4 212.6C953.2 208.7 959.6 208.3 963.2 212.6C968.3 218.6 964.6 232.3 960.9 238.2C960.6 238.8 954.6 246.2 954.5 246.1C954.5 246.1 954.5 246 954.4 246C953.9 248.1 953.3 250.4 952.5 252.9C951.1 257.6 949.5 262.8 947.3 268.3C945.2 273.9 942.7 279.9 939.5 285.9C936.3 292 932.7 298.2 928.1 304.2C928.033 304.267 927.967 304.333 927.9 304.4C929.8 303 935.2 299.5 935.6 299.3C941.9 296.2 955.9 293.8 961.4 299.4C965.3 303.4 964.3 309.8 960.1 313.2C955.8 316.6 948.9 316.4 943.9 315.1C938.2 313.7 928.2 305.6 927.4 305C922.9 310.6 917.9 316 912.6 321.2C909.5 324.2 906.3 327.1 903.1 329.9C904.8 328.8 906.3 327.9 906.5 327.8C912.8 324.6 926.7 322.2 932.2 327.9C936.2 331.9 935.2 338.2 931 341.6C926.6 345.1 919.8 344.8 914.7 343.6C909.6 342.2 900.9 335.6 898.7 333.8C897.433 334.867 896.2 335.967 895 337.1C888.9 342.2 882.9 347.4 877.2 352.6C875.2 354.5 873.2 356.3 871.3 358.2C872.8 357.3 874 356.5 874.2 356.4C880.5 353.2 894.5 350.8 899.9 356.4C903.9 360.5 902.9 366.8 898.7 370.2C894.4 373.7 887.5 373.4 882.5 372.1C877.6 370.9 869.5 364.8 866.8 362.7C864.9 364.7 863 366.7 861.2 368.7C860 370.1 858.8 371.4 857.7 372.8C856.567 374.267 855.433 375.7 854.3 377.1C852.3 379.9 850.2 382.7 848.3 385.5C846.9 387.4 845.7 389.3 844.4 391.1C846.4 389.3 850.4 385.7 850.8 385.5C856.5 381.4 869.9 377 876.2 381.7C880.7 385.1 880.7 391.5 877 395.5C873.3 399.5 866.5 400.3 861.3 399.8C855.6 399.3 844.9 393.2 843.6 392.4C841.5 395.5 839.5 398.5 837.7 401.4C834.6 406.3 831.8 410.8 829.4 414.9L824.7 413C827.3 408.7 830.3 404 833.8 398.9C835.9 395.7 838.2 392.4 840.6 389C839.9 388.3 835.9 384.4 832.6 380.2C827.2 382.7 815.8 383.5 814.3 383.6C814.2 387.3 814.3 390.9 814.3 394.3C814.433 399.567 814.6 404.433 814.8 408.9L809.8 406.8C809.667 402.933 809.633 398.767 809.7 394.3C809.7 390.6 809.8 386.5 809.9 382.4C808.4 382.1 796.3 379.7 791.6 376.4C787.3 373.4 782.7 368.4 782.6 362.8C782.4 357.4 786.6 352.5 792.2 352.9C800 353.5 807.3 365.6 809 372.4C809.1 372.8 809.7 377.3 810 380.1C810 378.4 810.1 376.8 810.2 375.1C810.3 371.6 810.6 368.2 810.8 364.5C811 362.7 811.2 360.9 811.4 359.1C811.5 357.3 811.9 355.4 812.2 353.5C812.9 349.2 813.8 344.9 814.8 340.5C811.8 340.4 801.1 339.8 796.4 337.4C791.7 335.1 786.4 330.8 785.4 325.4C784.4 320 787.8 314.6 793.4 314.1C801.2 313.5 810.2 324.4 812.9 330.9C813.1 331.3 814.5 336.1 815.2 338.8C815.9 336.2 816.5 333.6 817.2 331C819.3 323.4 821.6 315.8 824 308.3C824.667 305.967 825.333 303.633 826 301.3C825 301.3 812.2 300.8 807 298.2C802.3 295.8 797 291.5 796 286.1C795 280.8 798.4 275.3 804 274.9C811.8 274.2 820.8 285.1 823.5 291.6C823.7 292.1 825.7 299.1 826.2 300.9C827.7 295.8 829.1 290.7 830.4 285.6C832.1 278.6 833.4 271.6 834.1 264.7C833.6 264.7 820.4 264.3 815 261.6C810.3 259.2 805 254.9 804 249.5C803 244.2 806.4 238.7 812 238.3C819.8 237.6 828.8 248.5 831.5 255C831.7 255.4 833.2 260.7 833.9 263.3C834.2 263.3 834.1 263.3 834.4 263.3C835.1 255.9 834.8 248.7 834.3 241.9C834 238 833.5 234.3 832.9 230.7C830.4 230.9 819 231.5 813.9 229.6C809 227.8 803.3 224.2 801.7 218.9C800.1 213.7 802.9 207.9 808.4 206.8C816.1 205.3 826.3 215.2 829.7 221.3C829.8 221.6 831.3 225.2 832.4 227.9C832.1 226.2 831.8 224.6 831.5 223C830.4 217.2 829 211.9 827.7 207.3C827 204.6 826.2 202.3 825.5 200.1C823 198.9 812.9 194.4 809.3 190.4C805.8 186.5 802.3 180.6 803.4 175.2C804.4 169.9 809.5 166 814.9 167.6Z" fill="#E91F38"/>
<path d="M812.4 80.9H671.2L665.3 91.8C659.1 103.4 646.7 110.7 633.3 110.7C619.8 110.7 607.5 103.4 601.3 91.8L595.4 80.9H454.2C439.1 80.9 426.9 92.8 426.9 107.5V834.6C426.9 849.3 439.1 861.2 454.2 861.2H812.4C827.4 861.2 839.7 849.3 839.7 834.6V107.5C839.7 92.8 827.4 80.9 812.4 80.9Z" fill="white" stroke="#1E1E1E" stroke-width="2" stroke-linecap="round" stroke-linejoin="round"/>
<path fill-rule="evenodd" clip-rule="evenodd" d="M811.3 107.8H782.8C782.3 107.8 782 107.4 782 107V91.4C782 90.9 782.3 90.5 782.8 90.5H811.3C811.7 90.5 812.1 90.9 812.1 91.4V107C812.1 107.4 811.7 107.8 811.3 107.8ZM783.6 106.2H810.4V92.2H783.6V106.2Z" fill="#1E1E1E"/>
<path d="M805 107H782.8V91.4H805V107Z" fill="#1E1E1E"/>
<path fill-rule="evenodd" clip-rule="evenodd" d="M805 107.7H782.8C782.4 107.7 782.1 107.4 782.1 107V91.4C782.1 91 782.4 90.6 782.8 90.6H805C805.4 90.6 805.7 91 805.7 91.4V107C805.7 107.4 805.4 107.7 805 107.7ZM783.5 106.3H804.3V92.1H783.5V106.3Z" fill="#1E1E1E"/>
<path d="M815.2 102.6H811.2V95.7H815.2V102.6Z" fill="#1E1E1E"/>
<path fill-rule="evenodd" clip-rule="evenodd" d="M815.2 103.3H811.2C810.8 103.3 810.5 103 810.5 102.6V95.7C810.5 95.3 810.8 95 811.2 95H815.2C815.6 95 815.9 95.3 815.9 95.7V102.6C815.9 103 815.6 103.3 815.2 103.3ZM811.9 101.9H814.5V96.5H811.9V101.9Z" fill="#1E1E1E"/>
<path d="M455.6 96.2H450.4V105.2H455.6V96.2Z" fill="#1E1E1E"/>
<path fill-rule="evenodd" clip-rule="evenodd" d="M455.6 106H450.4C449.9 106 449.5 105.6 449.5 105.2V96.2C449.5 95.7 449.9 95.3 450.4 95.3H455.6C456.1 95.3 456.5 95.7 456.5 96.2V105.2C456.5 105.6 456.1 106 455.6 106ZM451.3 104.3H454.8V97.1H451.3V104.3Z" fill="#1E1E1E"/>
<path d="M463.8 93.1H458.6V105.2H463.8V93.1Z" fill="#1E1E1E"/>
<path fill-rule="evenodd" clip-rule="evenodd" d="M463.8 106H458.6C458.1 106 457.7 105.6 457.7 105.2V93.1C457.7 92.6 458.1 92.2 458.6 92.2H463.8C464.3 92.2 464.7 92.6 464.7 93.1V105.2C464.7 105.6 464.3 106 463.8 106ZM459.5 104.3H463V94H459.5V104.3Z" fill="#1E1E1E"/>
<path d="M472 89.4H466.8V105.2H472V89.4Z" fill="#1E1E1E"/>
<path fill-rule="evenodd" clip-rule="evenodd" d="M472 106H466.8C466.3 106 465.9 105.6 465.9 105.2V89.4C465.9 88.9 466.3 88.5 466.8 88.5H472C472.5 88.5 472.9 88.9 472.9 89.4V105.2C472.9 105.6 472.5 106 472 106ZM467.7 104.3H471.2V90.2H467.7V104.3Z" fill="#1E1E1E"/>
<path d="M763.7 106.7C763.7 105.6 762.9 104.8 761.9 104.8C760.8 104.8 760 105.6 760 106.7C760 107.7 760.8 108.5 761.9 108.5C762.9 108.5 763.7 107.7 763.7 106.7Z" fill="#1E1E1E"/>
<path d="M751.9 97.2C754.4 94.6 757.9 92.9 761.9 92.9C765.5 92.9 768.9 94.4 771.4 96.7L772.4 95.6C769.6 93 765.9 91.4 761.9 91.4C757.5 91.4 753.6 93.2 750.8 96.2L751.9 97.2Z" fill="#1E1E1E"/>
<path d="M753.9 99.1L754.9 100.1C756.7 98.3 759.1 97.1 761.9 97.1C764.4 97.1 766.7 98.1 768.4 99.8L769.5 98.7C767.5 96.8 764.8 95.6 761.9 95.6C758.7 95.6 755.9 97 753.9 99.1Z" fill="#1E1E1E"/>
<path d="M757.2 102.3L758.3 103.3C759.2 102.4 760.5 101.8 761.9 101.8C763.2 101.8 764.3 102.3 765.2 103.2L766.2 102.1C765.1 101 763.6 100.3 761.9 100.3C760 100.3 758.4 101.1 757.2 102.3Z" fill="#1E1E1E"/>
<path d="M442.6 150H474.9" stroke="#E91F38" stroke-width="2" stroke-miterlimit="10"/>
<path d="M442.6 160.7H474.9" stroke="#E91F38" stroke-width="2" stroke-miterlimit="10"/>
<path d="M442.6 171.5H474.9" stroke="#E91F38" stroke-width="2" stroke-miterlimit="10"/>
<path d="M795 159.3H785.2V149.5H795V159.3Z" stroke="#E91F38" stroke-width="2" stroke-miterlimit="10"/>
<path d="M810.4 159.3H800.5V149.5H810.4V159.3Z" stroke="#E91F38" stroke-width="2" stroke-miterlimit="10"/>
<path d="M795 173.3H785.2V163.5H795V173.3Z" stroke="#E91F38" stroke-width="2" stroke-miterlimit="10"/>
<path d="M810.4 173.3H800.5V163.5H810.4V173.3Z" stroke="#E91F38" stroke-width="2" stroke-miterlimit="10"/>
<path d="M682.5 766.7H588.5C575.8 766.7 565.5 756.4 565.5 743.7C565.5 731 575.8 720.7 588.5 720.7H682.5C695.2 720.7 705.5 731 705.5 743.7C705.5 756.4 695.2 766.7 682.5 766.7Z" fill="#E91F38"/>
<path d="M442.6 197.6H823.9" stroke="#CCCCCC" stroke-width="2" stroke-miterlimit="10"/>
<path d="M442.6 323H823.9" stroke="#CCCCCC" stroke-width="2" stroke-miterlimit="10"/>
<path d="M442.6 403.6H823.9" stroke="#CCCCCC" stroke-width="2" stroke-miterlimit="10"/>
<path d="M442.6 484.3H823.9" stroke="#CCCCCC" stroke-width="2" stroke-miterlimit="10"/>
<path d="M442.6 565H823.9" stroke="#CCCCCC" stroke-width="2" stroke-miterlimit="10"/>
<path d="M442.6 645.6H823.9" stroke="#CCCCCC" stroke-width="2" stroke-miterlimit="10"/>
<path d="M442.6 790.2H823.9" stroke="#CCCCCC" stroke-width="2" stroke-miterlimit="10"/>
<path d="M553.2 805.4L567.2 813.4V797.3L553.2 805.4Z" stroke="#CCCCCC" stroke-width="2" stroke-miterlimit="10"/>
<path d="M641.8 805.4C641.8 801.2 638.5 797.9 634.4 797.9C630.2 797.9 626.9 801.2 626.9 805.4C626.9 809.5 630.2 812.8 634.4 812.8C638.5 812.8 641.8 809.5 641.8 805.4Z" stroke="#CCCCCC" stroke-width="2" stroke-miterlimit="10"/>
<path d="M716.6 813.4H700.4V797.3H716.6V813.4Z" stroke="#CCCCCC" stroke-width="2" stroke-miterlimit="10"/>
</svg>
